PathFileType	3	(X/Y/Z)	squats_2__fused_aligned.trc
DataRate	CameraRate	NumFrames	NumMarkers	Units	OrigDataRate	OrigDataStartFrame	OrigNumFrames
100.0	100.0	17	19	mm	100.0	336	1520
Frame#	Time	pelvis			neck			head			hip_left			hip_right			knee_left			knee_right			ankle_left			ankle_right			heel_left			heel_right			toe_left			toe_right			shoulder_left			shoulder_right			elbow_left			elbow_right			wrist_left			wrist_right			
		X1	Y1	Z1	X2	Y2	Z2	X3	Y3	Z3	X4	Y4	Z4	X5	Y5	Z5	X6	Y6	Z6	X7	Y7	Z7	X8	Y8	Z8	X9	Y9	Z9	X10	Y10	Z10	X11	Y11	Z11	X12	Y12	Z12	X13	Y13	Z13	X14	Y14	Z14	X15	Y15	Z15	X16	Y16	Z16	X17	Y17	Z17	X18	Y18	Z18	X19	Y19	Z19	
336	3.35000	70.390476	542.324297	83.265555	76.444089	965.499843	-235.398570	81.080380	1034.752749	-389.149843	-7.691028	542.706890	79.122022	148.471998	541.941704	87.409176	-91.053029	438.284568	-315.535676	275.164122	346.761530	-245.870783	-64.047783	172.173183	-27.448405	216.293983	51.687432	-7.153568	-58.371010	142.081426	22.764361	204.849189	21.851441	42.232633	-95.822257	90.440297	-181.673068	238.075908	-49.363895	-159.838685	-100.812572	942.709489	-194.117654	250.285953	929.597561	-189.333484	-236.169783	700.034496	-194.194233	352.471529	669.837892	-186.384558	-198.514862	577.544090	-404.732936	340.179428	546.475634	-394.484263
337	3.36000	69.492360	538.128996	83.175357	75.899980	961.283925	-234.537684	80.508308	1030.534055	-388.204637	-8.657245	538.546833	78.952439	147.641980	537.711160	87.398348	-91.479170	436.903523	-316.253278	274.745573	342.595950	-244.734117	-63.787150	171.981408	-27.483682	215.523278	48.448594	-5.834323	-58.062530	141.991374	22.775776	204.063784	18.659735	43.543087	-95.386069	90.161748	-181.550768	237.154064	-52.419367	-158.486471	-101.295838	938.646169	-193.453414	249.619009	925.352854	-188.512983	-236.961978	696.193353	-194.536676	351.668189	665.699522	-186.327721	-200.163890	574.182363	-405.147934	339.294009	542.849233	-394.452698
338	3.37000	68.594245	533.933696	83.085160	75.355870	957.068006	-233.676798	79.936235	1026.315361	-387.259431	-9.623461	534.386776	78.782855	146.811963	533.480616	87.387519	-91.905312	435.522478	-316.970879	274.327024	338.430371	-243.597451	-63.526518	171.789634	-27.518960	214.752574	45.209755	-4.515078	-57.754050	141.901323	22.787191	203.278379	15.468029	44.853541	-94.949881	89.883199	-181.428467	236.232220	-55.474838	-157.134256	-101.779104	934.582849	-192.789174	248.952065	921.108146	-187.692482	-237.754172	692.352210	-194.879119	350.864849	661.561152	-186.270884	-201.812918	570.820636	-405.562933	338.408591	539.222832	-394.421132
339	3.38000	67.696129	529.738395	82.994962	74.811761	952.852087	-232.815913	79.364162	1022.096667	-386.314226	-10.589677	530.226719	78.613271	145.981945	529.250071	87.376691	-92.331453	434.141433	-317.688481	273.908475	334.264791	-242.460785	-63.265885	171.597859	-27.554237	213.981869	41.970917	-3.195833	-57.445570	141.811272	22.798606	202.492974	12.276323	46.163995	-94.513692	89.604650	-181.306166	235.310376	-58.530309	-155.782042	-102.262370	930.519529	-192.124935	248.285121	916.863439	-186.871982	-238.546367	688.511066	-195.221562	350.061509	657.422781	-186.214047	-203.461946	567.458909	-405.977931	337.523172	535.596432	-394.389566
340	3.39000	66.798013	525.543095	82.904765	74.267651	948.636168	-231.955027	78.792090	1017.877973	-385.369020	-11.555893	526.066663	78.443687	145.151927	525.019527	87.365863	-92.757595	432.760388	-318.406082	273.489926	330.099211	-241.324119	-63.005252	171.406084	-27.589514	213.211164	38.732079	-1.876588	-57.137090	141.721220	22.810020	201.707569	9.084618	47.474449	-94.077504	89.326101	-181.183865	234.388532	-61.585781	-154.429828	-102.745636	926.456210	-191.460695	247.618177	912.618731	-186.051481	-239.338562	684.669923	-195.564005	349.258169	653.284411	-186.157210	-205.110973	564.097182	-406.392930	336.637754	531.970031	-394.358000
341	3.40000	65.899897	521.347794	82.814567	73.723542	944.420250	-231.094141	78.220017	1013.659279	-384.423814	-12.522109	521.906606	78.274103	144.321910	520.788983	87.355035	-93.183736	431.379343	-319.123684	273.071376	325.933631	-240.187452	-62.744620	171.214309	-27.624792	212.440460	35.493241	-0.557343	-56.828610	141.631169	22.821435	200.922164	5.892912	48.784903	-93.641315	89.047551	-181.061564	233.466688	-64.641252	-153.077614	-103.228902	922.392890	-190.796455	246.951233	908.374023	-185.230980	-240.130756	680.828780	-195.906448	348.454829	649.146041	-186.100373	-206.760001	560.735455	-406.807928	335.752335	528.343630	-394.326435
342	3.41000	65.001781	517.152494	82.724369	73.179432	940.204331	-230.233255	77.647944	1009.440585	-383.478608	-13.488326	517.746549	78.104520	143.491892	516.558438	87.344207	-93.609878	429.998298	-319.841285	272.652827	321.768051	-239.050786	-62.483987	171.022535	-27.660069	211.669755	32.254403	0.761903	-56.520130	141.541118	22.832850	200.136759	2.701206	50.095357	-93.205127	88.769002	-180.939263	232.544844	-67.696724	-151.725400	-103.712168	918.329570	-190.132215	246.284289	904.129316	-184.410479	-240.922951	676.987636	-196.248892	347.651489	645.007670	-186.043536	-208.409029	557.373728	-407.222927	334.866917	524.717230	-394.294869
343	3.42000	64.103665	512.957193	82.634172	72.635323	935.988412	-229.372370	77.075872	1005.221891	-382.533402	-14.454542	513.586492	77.934936	142.661874	512.327894	87.333379	-94.036020	428.617254	-320.558887	272.234278	317.602471	-237.914120	-62.223355	170.830760	-27.695346	210.899050	29.015565	2.081148	-56.211650	141.451066	22.844265	199.351354	-0.490499	51.405811	-92.768938	88.490453	-180.816962	231.623000	-70.752195	-150.373185	-104.195434	914.266251	-189.467975	245.617345	899.884608	-183.589979	-241.715146	673.146493	-196.591335	346.848149	640.869300	-185.986700	-210.058057	554.012001	-407.637925	333.981498	521.090829	-394.263303
344	3.43000	63.205549	508.761893	82.543974	72.091213	931.772493	-228.511484	76.503799	1001.003197	-381.588196	-15.420758	509.426435	77.765352	141.831857	508.097349	87.322551	-94.462161	427.236209	-321.276488	271.815729	313.436892	-236.777454	-61.962722	170.638985	-27.730624	210.128345	25.776726	3.400393	-55.903170	141.361015	22.855680	198.565949	-3.682205	52.716265	-92.332750	88.211904	-180.694661	230.701156	-73.807666	-149.020971	-104.678700	910.202931	-188.803735	244.950401	895.639900	-182.769478	-242.507340	669.305350	-196.933778	346.044809	636.730929	-185.929863	-211.707085	550.650274	-408.052924	333.096080	517.464429	-394.231737
345	3.44000	62.307434	504.566593	82.453777	71.547103	927.556575	-227.650598	75.931726	996.784503	-380.642990	-16.386974	505.266379	77.595768	141.001839	503.866805	87.311723	-94.888303	425.855164	-321.994090	271.397180	309.271312	-235.640787	-61.702089	170.447210	-27.765901	209.357641	22.537888	4.719638	-55.594690	141.270964	22.867094	197.780544	-6.873911	54.026719	-91.896561	87.933355	-180.572360	229.779312	-76.863138	-147.668757	-105.161966	906.139611	-188.139495	244.283457	891.395193	-181.948977	-243.299535	665.464206	-197.276221	345.241469	632.592559	-185.873026	-213.356112	547.288547	-408.467922	332.210661	513.838028	-394.200171
346	3.45000	61.409318	500.371292	82.363579	71.002994	923.340656	-226.789712	75.359654	992.565809	-379.697784	-17.353191	501.106322	77.426184	140.171821	499.636261	87.300895	-95.314444	424.474119	-322.711691	270.978631	305.105732	-234.504121	-61.441457	170.255436	-27.801179	208.586936	19.299050	6.038883	-55.286209	141.180913	22.878509	196.995139	-10.065617	55.337173	-91.460373	87.654806	-180.450059	228.857468	-79.918609	-146.316543	-105.645232	902.076291	-187.475255	243.616514	887.150485	-181.128477	-244.091730	661.623063	-197.618664	344.438129	628.454189	-185.816189	-215.005140	543.926820	-408.882921	331.325243	510.211627	-394.168606
347	3.46000	59.073838	496.401024	82.816098	68.793141	919.759197	-225.072452	73.159397	989.198805	-377.803614	-19.744470	497.248911	77.956324	137.892141	495.553135	87.675791	-98.112517	423.043219	-322.219935	268.234804	300.278565	-232.767679	-63.267802	169.943733	-26.865814	205.697417	15.573128	7.824673	-56.998997	140.958771	23.834702	194.169729	-13.695614	57.129637	-93.316751	87.275700	-179.303224	225.370820	-83.588949	-144.442409	-107.899891	898.616856	-185.692225	241.474058	883.146360	-179.884028	-246.479506	658.386077	-196.902878	341.665917	624.515905	-185.522429	-218.095244	541.426934	-408.166177	326.750279	507.055172	-393.443592
348	3.47000	56.738359	492.430755	83.268616	66.583289	916.177739	-223.355191	70.959141	985.831800	-375.909443	-22.135750	493.391499	78.486464	135.612460	491.470009	88.050687	-100.910590	421.612320	-321.728180	265.490978	295.451398	-231.031238	-65.094148	169.632031	-25.930449	202.807898	11.847206	9.610464	-58.711785	140.736630	24.790895	191.344318	-17.325611	58.922102	-95.173130	86.896594	-178.156388	221.884172	-87.259289	-142.568275	-110.154551	895.157421	-183.909194	239.331603	879.142236	-178.639579	-248.867281	655.149090	-196.187091	338.893705	620.577622	-185.228669	-221.185347	538.927049	-407.449433	322.175316	503.898717	-392.718578
349	3.48000	54.402879	488.460487	83.721134	64.373436	912.596280	-221.637930	68.758885	982.464795	-374.015273	-24.527029	489.534088	79.016604	133.332780	487.386884	88.425584	-103.708663	420.181421	-321.236424	262.747151	290.624232	-229.294796	-66.920493	169.320329	-24.995084	199.918379	8.121284	11.396254	-60.424573	140.514489	25.747088	188.518908	-20.955609	60.714567	-97.029508	86.517489	-177.009552	218.397524	-90.929629	-140.694141	-112.409211	891.697985	-182.126164	237.189148	875.138111	-177.395131	-251.255057	651.912103	-195.471304	336.121493	616.639338	-184.934909	-224.275451	536.427163	-406.732688	317.600353	500.742261	-391.993564
350	3.49000	52.067399	484.490219	84.173653	62.163584	909.014821	-219.920669	66.558629	979.097790	-372.121102	-26.918309	485.676677	79.546743	131.053100	483.303758	88.800480	-106.506736	418.750521	-320.744669	260.003324	285.797065	-227.558354	-68.746838	169.008627	-24.059720	197.028860	4.395362	13.182044	-62.137361	140.292347	26.703281	185.693498	-24.585606	62.507032	-98.885887	86.138383	-175.862717	214.910875	-94.599970	-138.820007	-114.663870	888.238550	-180.343133	235.046693	871.133986	-176.150682	-253.642833	648.675117	-194.755517	333.349281	612.701054	-184.641149	-227.365554	533.927277	-406.015944	313.025390	497.585806	-391.268550
351	3.50000	49.731920	480.519950	84.626171	59.953731	905.433363	-218.203409	64.358373	975.730786	-370.226932	-29.309589	481.819266	80.076883	128.773419	479.220632	89.175377	-109.304809	417.319622	-320.252913	257.259497	280.969898	-225.821913	-70.573184	168.696925	-23.124355	194.139341	0.669440	14.967835	-63.850149	140.070206	27.659474	182.868088	-28.215604	64.299497	-100.742265	85.759277	-174.715881	211.424227	-98.270310	-136.945873	-116.918530	884.779115	-178.560103	232.904238	867.129861	-174.906234	-256.030609	645.438130	-194.039730	330.577069	608.762771	-184.347388	-230.455657	531.427391	-405.299200	308.450427	494.429351	-390.543536
352	3.51000	47.396440	476.549682	85.078690	57.743878	901.851904	-216.486148	62.158116	972.363781	-368.332761	-31.700868	477.961854	80.607023	126.493739	475.137506	89.550273	-112.102882	415.888722	-319.761157	254.515670	276.142731	-224.085471	-72.399529	168.385223	-22.188990	191.249822	-3.056482	16.753625	-65.562937	139.848064	28.615667	180.042678	-31.845601	66.091962	-102.598644	85.380172	-173.569045	207.937579	-101.940650	-135.071739	-119.173190	881.319679	-176.777072	230.761783	863.125737	-173.661785	-258.418385	642.201144	-193.323944	327.804857	604.824487	-184.053628	-233.545761	528.927505	-404.582456	303.875463	491.272895	-389.818522
